<svg xmlns="http://www.w3.org/2000/svg" viewBox="0 0 512 512"><title>Artboard 101</title><g id="Age_Restriction" data-name="Age Restriction"><path d="M256,320c62.93847,0,102.66649,23.21046,119.18405,35.39315A21.43583,21.43583,0,0,1,384,372.68978V384a21.33333,21.33333,0,0,1-21.33333,21.33333H149.33333A21.33333,21.33333,0,0,1,128,384V372.68978a21.43583,21.43583,0,0,1,8.81595-17.29663C153.33351,343.21046,193.06153,320,256,320Z" style="fill:#fcdf3f"/><path d="M256,320a234.96269,234.96269,0,0,0-39.42318,3.34505c19.5625,23.8138,48.86589,39.32162,82.08985,39.32162a106.138,106.138,0,0,0,59.444-18.112C336.99609,332.92969,302.97917,320,256,320Z" style="fill:#fbc700"/><path d="M256,42.66667C138.17969,42.66667,42.66667,138.17839,42.66667,256c0,117.82031,95.513,213.33333,213.33333,213.33333S469.33333,373.82031,469.33333,256C469.33333,138.17839,373.82031,42.66667,256,42.66667Zm0,362.66666A149.33333,149.33333,0,1,1,405.33333,256,149.33342,149.33342,0,0,1,256,405.33333Z" style="fill:#fa4659"/><path d="M138.66667,426.66667a10.66667,10.66667,0,0,1-7.54167-18.20834L152.45833,387.125a10.66553,10.66553,0,1,1,15.08334,15.08333l-21.33334,21.33334A10.63211,10.63211,0,0,1,138.66667,426.66667Z" style="fill:#cb0025"/><path d="M394.66667,170.66667a10.66667,10.66667,0,0,1-7.54167-18.20834L408.45833,131.125a10.66553,10.66553,0,1,1,15.08334,15.08333l-21.33334,21.33334A10.63211,10.63211,0,0,1,394.66667,170.66667Z" style="fill:#cb0025"/><rect x="341.33333" y="213.33333" width="42.66667" height="64" rx="21.33331" ry="21.33331" style="fill:#fcdf3f"/><rect x="149.33333" y="85.33333" width="213.33333" height="256" rx="106.66656" ry="106.66656" style="fill:#ffef7d"/><rect x="137.39454" y="272.814" width="258.74638" height="30.16989" rx="15.08493" ry="15.08493" transform="translate(-125.44084 272.95691) rotate(-45)" style="fill:#fbc700"/><rect x="128" y="213.33333" width="42.66667" height="64" rx="21.33331" ry="21.33331" style="fill:#ffef7d"/><circle cx="202.66667" cy="202.66667" r="10.66667" style="fill:#0ac"/><circle cx="309.33333" cy="202.66667" r="10.66667" style="fill:#080b36"/><ellipse cx="192" cy="277.33333" rx="18.28499" ry="23.99552" transform="translate(-139.86878 216.99355) rotate(-45)" style="fill:#fffad6"/><ellipse cx="224" cy="138.66667" rx="37.6503" ry="25.1002" transform="translate(-32.44406 199.00645) rotate(-45)" style="fill:#fffad6"/><rect x="44.81077" y="225.83011" width="422.37845" height="60.33978" transform="translate(-106.03867 256) rotate(-45)" style="fill:#fa4659"/></g></svg>