<svg width="512" height="449" viewBox="0 0 512 449" fill="none" xmlns="http://www.w3.org/2000/svg">
<path fill-rule="evenodd" clip-rule="evenodd" d="M512 75.867C512 82.898 509.797 89.394 506.023 94.703C495.961 109.754 482.296 120.68 468.656 132.125C465.859 134.832 464.086 138.512 463.851 142.656C462.328 211.812 436.71 290.902 391.071 343.168C336.485 405.658 262.071 448.049 175.993 448.049C167.169 448.049 159.993 440.877 159.993 432.049C159.993 423.205 167.169 416.049 175.993 416.049C334.548 416.049 420.937 277.449 431 159.125C431.469 157.473 431.758 155.34 431.758 152.309C431.758 151.301 431.774 150.297 431.828 149.313C432.617 135.517 438.789 123.157 448.258 114.294C448.727 113.845 449.086 113.435 449.43 113.021C460.985 101.646 471.641 88.353 479.891 75.869C468.172 81.127 455.813 85.107 442.969 87.799C440.821 87.799 439.008 85.987 439.008 83.799C439.008 82.705 439.453 81.701 440.172 80.983C440.203 80.948 440.063 80.999 440.047 80.999C452.656 69.987 462.328 55.597 467.531 39.183C459.062 44.242 450.125 48.601 440.851 52.281C434.859 54.668 428.351 56.047 421.492 56.047C410.82 56.047 400.899 52.836 392.649 47.328C392.329 47.113 392.001 46.969 391.68 46.773C378.008 37.589 362.063 32.062 344 32.062L342.117 32.402C302.375 32.402 272.172 54.808 260.883 89.109C260.566 89.256 257.332 103.515 257.008 105.562C254.012 124.683 237.473 139.304 217.504 139.304C215.336 139.304 213.199 139.124 211.117 138.765C158.645 128.953 111.27 106.261 75.9096 69.359C75.6946 69.179 75.5306 69.125 75.2256 68.82C70.5456 64.136 62.9556 64.136 58.2566 68.82C57.1626 69.933 56.3186 71.187 55.7256 72.55C55.5846 72.894 55.4956 72.894 55.3856 72.964C51.1156 82.831 47.9946 93.503 47.9946 104.054C47.9946 125.886 56.8736 145.815 70.2216 161.655C70.2216 161.675 70.0616 161.585 70.1316 161.655C71.2996 163.053 71.9986 164.85 71.9986 166.803C71.9986 171.217 68.4086 174.803 63.9946 174.803C63.1156 174.803 62.2916 174.573 61.5026 174.303C61.3776 174.248 61.2526 174.194 61.1276 174.143C60.9826 174.194 60.8226 174.268 60.5686 174.143C59.4946 173.604 58.2916 173.299 57.0026 173.299C52.6586 173.299 49.1436 176.815 49.0336 181.119C53.1976 209.588 70.6706 234.795 94.2606 249.577C93.9556 249.546 93.7766 249.546 93.8856 249.608C96.0536 251.03 97.5066 253.506 97.5066 256.303C97.5066 260.717 93.9206 264.303 89.5066 264.303C89.4166 264.303 89.3266 264.287 89.2366 264.287C89.1316 264.264 89.0416 264.232 88.9316 264.217C88.6466 264.178 88.3766 264.123 88.0876 264.092C85.9356 264.201 84.2476 265.904 84.2476 268.053C84.2476 268.686 84.3766 269.272 84.6426 269.795C91.1546 286.014 102.17 299.873 116.038 310.014C116.202 310.139 116.237 310.248 116.433 310.389C117.617 311.233 118.73 312.201 119.808 313.264C130.73 324.186 130.73 341.912 119.808 352.858C116.453 356.186 112.468 358.522 108.253 359.811C108.218 359.827 108.237 359.811 108.198 359.827C91.8026 365.03 74.4356 368.046 55.9946 368.046C52.9086 368.046 49.4676 368.046 46.0026 368.046C43.7956 368.046 42.0026 369.843 42.0026 372.046C42.0026 373.343 42.6476 374.421 43.5806 375.14C50.1666 379.046 56.9126 382.867 63.9246 386.421L63.9086 386.437C68.6236 389.076 71.8736 394.06 71.8736 399.873C71.8736 408.396 64.9676 415.303 56.4436 415.303C52.9636 415.303 49.7716 414.1 47.1856 412.162C35.9746 406.295 25.1036 400.014 14.7716 393.326C2.18161 385.184 -3.16639 369.34 1.89261 355.129C6.48661 342.137 18.5956 336.043 31.9976 336.043C37.9506 336.762 49.8996 336.043 55.9976 336.043C68.2866 336.043 78.3526 333.512 89.9936 330.699C72.5206 315.879 59.0286 296.144 51.7276 273.129C49.9156 267.402 49.7356 261.395 51.0826 255.731C30.4346 233.2 15.9936 200.438 15.9936 168.059C16.1536 160.039 21.2666 153.348 26.4896 147.625C21.4306 133.864 15.9936 119.192 15.9936 104.051C15.9936 81.914 24.5516 60.082 35.5476 41.047C40.8566 31.863 53.5046 24.883 63.9966 24.059C73.5946 24.059 82.0276 29.332 88.1446 36.903C118.321 74.255 165.551 94.329 212.016 105.809C212.805 105.95 213.649 106.059 214.493 106.059C222.118 106.059 228.431 100.766 230.083 93.625C242.817 39.844 284.563 0 342.118 0C366.462 0 390.196 7.34 410.265 20.633C413.39 22.606 417.031 23.809 420.992 23.809C422.75 23.809 424.437 23.52 426.031 23.09C434.703 19.86 443.148 16.11 451.148 11.305C456.226 8.27 461.875 8.039 467.507 8.039C474.616 8.039 481.702 9.168 487.515 13.832C497.937 22.211 502.148 36.223 498.077 49.031C498.077 49.066 498.061 49.101 498.061 49.136C506.477 54.984 512 64.781 512 75.867ZM31.9976 336.043C33.2506 336.043 30.7396 335.902 31.9976 336.043ZM63.9966 24.059C64.8246 23.984 63.1716 24.059 63.9966 24.059ZM120.005 408.049C128.833 408.049 136.009 415.205 136.009 424.049C136.009 432.877 128.833 440.049 120.005 440.049C111.161 440.049 104.005 432.877 104.005 424.049C104.005 415.205 111.162 408.049 120.005 408.049Z" fill="black"/>
</svg>
